<svg xmlns="http://www.w3.org/2000/svg" viewBox="0 0 100 100" fill="none">
  <!-- Main leaf shape -->
  <path
    d="M50 10 C70 15, 85 30, 90 50 C95 70, 85 85, 65 90 C55 92, 50 95, 50 95 C50 95, 50 10, 50 10 Z"
    fill="#22c55e"
    stroke="#16a34a"
    stroke-width="2"
  />
  <path
    d="M50 10 C30 15, 15 30, 10 50 C5 70, 15 85, 35 90 C45 92, 50 95, 50 95 C50 95, 50 10, 50 10 Z"
    fill="#10b981"
    stroke="#059669"
    stroke-width="2"
  />
  <!-- Central vein -->
  <path
    d="M50 15 L50 90"
    stroke="#047857"
    stroke-width="2.5"
    stroke-linecap="round"
  />
  <!-- Side veins -->
  <path
    d="M50 25 Q35 30, 25 40"
    stroke="#047857"
    stroke-width="1.5"
    stroke-linecap="round"
    fill="none"
    opacity="0.7"
  />
  <path
    d="M50 35 Q35 42, 20 55"
    stroke="#047857"
    stroke-width="1.5"
    stroke-linecap="round"
    fill="none"
    opacity="0.7"
  />
  <path
    d="M50 50 Q35 60, 22 72"
    stroke="#047857"
    stroke-width="1.5"
    stroke-linecap="round"
    fill="none"
    opacity="0.7"
  />
  <path
    d="M50 25 Q65 30, 75 40"
    stroke="#047857"
    stroke-width="1.5"
    stroke-linecap="round"
    fill="none"
    opacity="0.7"
  />
  <path
    d="M50 35 Q65 42, 80 55"
    stroke="#047857"
    stroke-width="1.5"
    stroke-linecap="round"
    fill="none"
    opacity="0.7"
  />
  <path
    d="M50 50 Q65 60, 78 72"
    stroke="#047857"
    stroke-width="1.5"
    stroke-linecap="round"
    fill="none"
    opacity="0.7"
  />
</svg>
